<?xml version="1.0" encoding="UTF-8" standalone="no"?>
<svg
   xmlns:dc="http://purl.org/dc/elements/1.1/"
   xmlns:cc="http://creativecommons.org/ns#"
   xmlns:rdf="http://www.w3.org/1999/02/22-rdf-syntax-ns#"
   xmlns:svg="http://www.w3.org/2000/svg"
   xmlns="http://www.w3.org/2000/svg"
   xmlns:sodipodi="http://sodipodi.sourceforge.net/DTD/sodipodi-0.dtd"
   xmlns:inkscape="http://www.inkscape.org/namespaces/inkscape"
   width="100%"
   height="100%"
   viewBox="0 0 32 32"
   version="1.1"
   xml:space="preserve"
   style="fill-rule:evenodd;clip-rule:evenodd;stroke-linejoin:round;stroke-miterlimit:1.5;"
   id="svg392"
   sodipodi:docname="virgo.svg"
   inkscape:version="0.92.3 (2405546, 2018-03-11)"><defs
   id="defs396" /><sodipodi:namedview
   pagecolor="#ffffff"
   bordercolor="#666666"
   borderopacity="1"
   objecttolerance="10"
   gridtolerance="10"
   guidetolerance="10"
   inkscape:pageopacity="0"
   inkscape:pageshadow="2"
   inkscape:window-width="1920"
   inkscape:window-height="964"
   id="namedview394"
   showgrid="false"
   inkscape:zoom="7.375"
   inkscape:cx="16"
   inkscape:cy="16"
   inkscape:window-x="0"
   inkscape:window-y="27"
   inkscape:window-maximized="1"
   inkscape:current-layer="svg392" />
<metadata
   id="metadata370">
<rdf:RDF>

     <rdf:Description
   rdf:about="">
       <dc:title>Mutant Standard emoji v0.1.0</dc:title>
     </rdf:Description>

    <cc:work
   rdf:about="">
        <cc:license
   rdf:resource="http://creativecommons.org/licenses/by-nc-sa/4.0/" />
        <cc:attributionName>Dzuk</cc:attributionName>
        <cc:attributionURL>http://mutant.tech/</cc:attributionURL>
    </cc:work>

<cc:Work
   rdf:about=""><dc:format>image/svg+xml</dc:format><dc:type
     rdf:resource="http://purl.org/dc/dcmitype/StillImage" /><dc:title></dc:title></cc:Work></rdf:RDF>
</metadata>
<rect
   id="virgo"
   x="0"
   y="0"
   width="32"
   height="32"
   style="fill:none;" /><clipPath
   id="_clip1"><rect
     x="0"
     y="0"
     width="32"
     height="32"
     id="rect373" /></clipPath><g
   clip-path="url(#_clip1)"
   id="g390"><g
     id="outline"><path
       d="M32,8c0,-4.418 -3.582,-8 -8,-8c-4.887,0 -11.113,0 -16,0c-4.418,0 -8,3.582 -8,8c0,4.887 0,11.113 0,16c0,4.418 3.582,8 8,8c4.887,0 11.113,0 16,0c4.418,0 8,-3.582 8,-8c0,-4.887 0,-11.113 0,-16Z"
       id="path376" /></g><g
     id="emoji"><path
       d="M30,8c0,-1.591 -0.632,-3.117 -1.757,-4.243c-1.126,-1.125 -2.652,-1.757 -4.243,-1.757c-4.724,0 -11.276,0 -16,0c-1.591,0 -3.117,0.632 -4.243,1.757c-1.125,1.126 -1.757,2.652 -1.757,4.243c0,4.724 0,11.276 0,16c0,1.591 0.632,3.117 1.757,4.243c1.126,1.125 2.652,1.757 4.243,1.757c4.724,0 11.276,0 16,0c1.591,0 3.117,-0.632 4.243,-1.757c1.125,-1.126 1.757,-2.652 1.757,-4.243c0,-4.724 0,-11.276 0,-16Z"
       style="fill:#008141;fill-opacity:1"
       id="path379" /><path
       d="M9,6l0,16"
       style="fill:none;stroke:#fff;stroke-width:2px;"
       id="path381" /><path
       d="M9,11c0,0 1.844,-1.844 3.293,-3.293c0.286,-0.286 0.716,-0.371 1.09,-0.217c0.373,0.155 0.617,0.52 0.617,0.924c0,4.471 0,13.586 0,13.586"
       style="fill:none;stroke:#fff;stroke-width:2px;"
       id="path383" /><path
       d="M14,11c0,0 1.844,-1.844 3.293,-3.293c0.286,-0.286 0.716,-0.371 1.09,-0.217c0.373,0.155 0.617,0.52 0.617,0.924c0,4.471 0,13.586 0,13.586l4,4"
       style="fill:none;stroke:#fff;stroke-width:2px;"
       id="path385" /><path
       d="M19,14c0,0 1.205,-1.205 2.293,-2.293c0.286,-0.286 0.716,-0.371 1.09,-0.217c0.373,0.155 0.617,0.52 0.617,0.924c0,1.91 0,4.463 0,5.758c0,0.53 -0.211,1.039 -0.586,1.414c-1.683,1.683 -6.414,6.414 -6.414,6.414"
       style="fill:none;stroke:#fff;stroke-width:2px;"
       id="path387" /></g></g></svg>